<svg fill="none" height="312" viewBox="0 0 312 312" width="312" xmlns="http://www.w3.org/2000/svg"><path d="m288.883 48.2741c15.486.3277 20.53 14.3334 21.117 21.2953v176.9146c-.845 21.622-14.5 21.704-21.117 21.704h-19.357m19.357-219.9139h-60.886m60.886 0c-2.534-9.1733-7.86-11.4666-10.206-11.4666h-17.677m-33.003 11.4666h-208.7039c-4.6926 0-14.71134 3.0305-17.24536 15.1524v183.0575c-.46926 7.781 2.32284 23.015 17.24536 21.704h22.5245m186.1794-219.9139c1.056-3.1396 4.505-9.8285 9.854-11.4666h17.149m0 0h3.264m-3.264 0-13.176-32.28893c-.419-1.0253.238-2.1708 1.334-2.32794.78-.11178 1.534.32606 1.824 1.05848l13.282 33.55839m0 0 12.233-33.7531c.22-.60757.849-.96534 1.484-.84424.796.15195 1.267.98121.989 1.74311l-11.97 32.85423m-2.736 0h2.736m-219.1824 231.3805-4.4501 34.69c-.115.897-.196 1.821.0852 2.68 1.2841 3.924 6.8751 6.086 10.8364 2.298 1.2153-1.162 1.7347-2.838 2.0456-4.491l6.6165-35.177m-15.1336 0h15.1336m-15.1336 0h211.8714m-196.7378 0h196.7378m0 0 5.63 33.008c.435 2.547 1.171 5.161 3.116 6.86 2.092 1.827 4.995 2.898 8.115.766 2.759-1.885 3.28-5.599 2.873-8.915l-3.897-31.719m-15.837 0h15.837" stroke="#2d3f58" stroke-width="4"/><path d="m19 86c0-9.3888 7.6112-17 17-17h179c9.389 0 17 7.6112 17 17v144c0 9.389-7.611 17-17 17h-179c-9.3888 0-17-7.611-17-17z" stroke="#2d3f58" stroke-width="4"/><g fill="#2d3f58"><circle cx="273" cy="150" r="10"/><circle cx="273" cy="185" r="10"/><circle cx="273" cy="221" r="10"/><rect height="6" rx="3" width="40" x="253" y="77"/><rect height="6" rx="3" width="40" x="253" y="95"/><rect height="6" rx="3" width="40" x="253" y="113"/></g><path d="m62.836 111.876v4.14h30.78v-4.14zm8.46 8.856v4.032h14.436v-4.032zm-1.764 9.72v3.996h15.048v-3.996zm-7.776 8.676v4.176h32.904v-4.176zm8.928-23.94c-1.008 6.228-2.808 14.22-4.32 19.26h4.86c1.296-4.824 2.988-12.816 4.212-19.26zm13.572 5.544v.468c-.432 4.356-1.584 12.672-2.7 18.828l4.5.432c1.008-6.156 2.16-13.896 2.736-19.512l-3.312-.36-.756.144zm19.332 12.996v3.06h16.812v-3.06zm-.828-17.136v3.132h18v-3.132zm7.164-2.556v25.812h3.888v-25.812zm-7.344 25.416.504 3.6c4.68-.432 11.232-1.08 17.352-1.728l-.036-3.276c-6.48.576-13.356 1.08-17.82 1.404zm4.572-11.484h9.504v1.656h-9.504zm0-4.14h9.504v1.62h-9.504zm-3.456-2.7v11.196h16.524v-11.196zm14.76-10.512c-3.96.864-10.224 1.512-15.588 1.764.396.828.792 2.196.936 3.06 5.4-.108 11.952-.648 16.56-1.584zm2.304 7.956v3.96h12.456v-3.96zm10.728 0v.936c-.288 13.932-.576 19.008-1.404 20.088-.324.504-.684.612-1.224.612-.72 0-2.088 0-3.636-.144.684 1.152 1.152 2.916 1.26 4.104 1.692.072 3.384.072 4.5-.144 1.188-.216 2.016-.612 2.808-1.836 1.188-1.62 1.476-6.876 1.8-21.708 0-.504.036-1.908.036-1.908zm-7.272-7.524c-.036 14.364.36 24.444-7.236 30.24.972.72 2.376 2.196 2.988 3.24 8.316-6.552 8.352-18.108 8.388-33.48zm44.352 1.764c1.656 1.188 3.672 2.988 4.608 4.212l3.024-2.592c-1.008-1.188-3.132-2.88-4.752-3.996zm-23.832 3.744v4.212h32.4v-4.212zm1.332 8.352v4.176h15.588v-4.176zm5.472 2.376v12.204h4.32v-12.204zm-6.84 11.592 1.224 4.356c4.68-.972 11.052-2.304 16.992-3.6l-.324-3.852c-6.48 1.224-13.536 2.448-17.892 3.096zm17.712-28.296c.036 16.668 2.304 33.696 10.116 33.696 3.42 0 4.896-1.692 5.544-8.568-1.224-.432-2.808-1.476-3.78-2.484-.216 4.536-.612 6.516-1.404 6.516-3.42 0-6.156-14.364-5.832-29.16zm-96.804 59.904c-.252 1.692-.864 4.212-1.368 5.832l2.412.684c.576-1.476 1.224-3.744 1.908-5.796zm-6.3.72c.648 1.512 1.224 3.528 1.368 4.86l2.592-.9c-.216-1.296-.828-3.276-1.512-4.752zm-5.112-5.22v32.292h3.852v-28.548h12.708v-3.744zm15.444 0v28.008c0 .468-.144.612-.612.648-.468 0-1.836.036-3.096-.036.504.972.972 2.628 1.08 3.636 2.304 0 3.888-.072 5.04-.684 1.116-.648 1.44-1.62 1.44-3.528v-28.044zm-10.944 9.9v3.24h10.224v-3.24zm.144 6.264v3.24h9.936v-3.24zm2.772-2.34c.432.9.9 2.16 1.116 2.952l3.06-1.116c-.216-.756-.756-1.908-1.224-2.772zm-12.456-.036c.828 2.196 1.8 5.148 2.124 6.912l3.024-1.26c-.468-1.656-1.476-4.536-2.376-6.696zm-3.528 8.892c.36 2.412.72 5.544.756 7.632l3.024-.792c-.144-2.088-.504-5.148-.972-7.524zm-3.924-.468c-.18 2.916-.576 6.156-1.368 8.244.792.216 2.268.72 2.988 1.116.72-2.232 1.26-5.616 1.512-8.82zm-.072-9.468c0-.684 2.124-1.872 2.124-1.872v-.072c2.232-2.808 4.572-6.948 6.192-10.8l-3.456-1.476c-1.188 3.816-3.384 7.812-4.104 8.856-.684 1.044-1.296 1.728-1.944 1.908.432.972 1.008 2.736 1.188 3.456zm0 0c.648-.324 1.728-.576 7.164-1.116.036-.792.18-2.16.396-3.132l-6.048.432-1.584 1.08zm.252 8.352c0-.684 2.16-1.836 2.16-1.836v-.072c3.384-3.672 6.912-8.748 9.396-13.644l-3.132-2.052c-2.16 5.076-5.724 10.332-6.876 11.664-1.116 1.368-1.836 2.232-2.7 2.448.396.972 1.008 2.772 1.152 3.492zm0 0c.792-.432 2.124-.792 10.404-2.088-.036-.756.036-2.16.144-3.096l-9.144 1.26-1.548 1.116zm7.56.756c.72 2.16 1.548 5.04 1.872 6.948l2.808-1.08c-.396-1.836-1.224-4.608-2.016-6.804zm10.476-3.924v3.636c0 2.88.648 4.068 3.708 4.068h3.024c.792 0 1.728-.036 2.232-.216-.108-.828-.18-2.052-.252-2.952-.54.18-1.512.216-2.088.216-.468 0-2.088 0-2.52 0-.576 0-.684-.288-.684-1.08v-3.672zm31.248-3.348h15.372v1.98h-15.372zm0 5.076h15.372v2.016h-15.372zm0-10.152h15.372v1.98h-15.372zm-4.536-3.276v18.72h24.624v-18.72zm13.896 21.348c3.996 1.368 8.136 3.348 10.512 4.68l4.32-2.88c-2.772-1.332-7.488-3.24-11.592-4.608zm-16.956-27.468v3.924h30.204v-3.924zm12.888 1.908c-.108 1.692-.54 4.032-.936 5.688l4.176.684c.576-1.476 1.332-3.6 2.016-5.832zm-3.132 22.5c-2.484 1.548-7.344 3.42-11.16 4.392 1.008.9 2.268 2.376 2.988 3.312 3.78-1.044 8.676-2.952 11.916-4.752zm31.752-15.084v3.276h11.088v-3.276zm0 4.896v3.24h11.16v-3.24zm-1.512-9.9v3.42h14.112v-3.42zm3.456 14.868v3.456h5.436v4.032h-5.436v3.456h9.18v-10.944zm-1.908 0v12.492h3.672v-12.492zm2.088-19.404c.9 1.548 2.016 3.744 2.52 5.112l3.492-1.908c-.576-1.332-1.692-3.312-2.664-4.824zm13.716-.288v3.996h9.612v-3.996zm-3.852 14.472v4.032h15.84v-4.032zm14.328 0v.648c-2.016 7.488-7.956 11.952-15.66 13.608.756.936 1.692 2.736 2.124 3.852 8.64-2.376 15.12-7.308 17.748-17.136l-2.7-1.116-.72.144zm-9.612 3.6-3.708 1.26c3.384 6.768 8.748 11.232 16.596 13.176.54-1.188 1.728-3.024 2.664-3.96-7.416-1.44-12.888-5.184-15.552-10.476zm-1.656-18.072v3.888c0 2.412-.432 5.04-4.392 6.984.756.612 2.268 2.304 2.772 3.168 4.572-2.448 5.58-6.48 5.58-10.008v-4.032zm8.244 0v7.848c0 3.6.684 5.112 4.068 5.112h1.872c.756 0 1.548-.036 2.052-.288-.18-.972-.252-2.484-.288-3.564-.468.144-1.296.252-1.764.252-.324 0-1.152 0-1.476 0-.432 0-.468-.432-.468-1.476v-7.884zm18.828 9.828v3.276h12.132v-3.276zm0 4.896v3.24h12.096v-3.24zm-1.584-9.9v3.42h15.228v-3.42zm3.6 14.868v3.456h6.444v4.032h-6.444v3.456h10.152v-10.944zm-1.872 0v12.492h3.636v-12.492zm2.268-19.404c.9 1.548 2.052 3.744 2.52 5.112l3.456-1.908c-.576-1.332-1.656-3.312-2.628-4.824zm11.124 10.548v4.248h17.496v-4.248zm6.3-11.34v33.156h4.5v-33.156z" fill="#ffdc62"/><path d="m68.836 111.876v4.14h30.78v-4.14zm8.46 8.856v4.032h14.436v-4.032zm-1.764 9.72v3.996h15.048v-3.996zm-7.776 8.676v4.176h32.904v-4.176zm8.928-23.94c-1.008 6.228-2.808 14.22-4.32 19.26h4.86c1.296-4.824 2.988-12.816 4.212-19.26zm13.572 5.544v.468c-.432 4.356-1.584 12.672-2.7 18.828l4.5.432c1.008-6.156 2.16-13.896 2.736-19.512l-3.312-.36-.756.144zm19.332 12.996v3.06h16.812v-3.06zm-.828-17.136v3.132h18v-3.132zm7.164-2.556v25.812h3.888v-25.812zm-7.344 25.416.504 3.6c4.68-.432 11.232-1.08 17.352-1.728l-.036-3.276c-6.48.576-13.356 1.08-17.82 1.404zm4.572-11.484h9.504v1.656h-9.504zm0-4.14h9.504v1.62h-9.504zm-3.456-2.7v11.196h16.524v-11.196zm14.76-10.512c-3.96.864-10.224 1.512-15.588 1.764.396.828.792 2.196.936 3.06 5.4-.108 11.952-.648 16.56-1.584zm2.304 7.956v3.96h12.456v-3.96zm10.728 0v.936c-.288 13.932-.576 19.008-1.404 20.088-.324.504-.684.612-1.224.612-.72 0-2.088 0-3.636-.144.684 1.152 1.152 2.916 1.26 4.104 1.692.072 3.384.072 4.5-.144 1.188-.216 2.016-.612 2.808-1.836 1.188-1.62 1.476-6.876 1.8-21.708 0-.504.036-1.908.036-1.908zm-7.272-7.524c-.036 14.364.36 24.444-7.236 30.24.972.72 2.376 2.196 2.988 3.24 8.316-6.552 8.352-18.108 8.388-33.48zm44.352 1.764c1.656 1.188 3.672 2.988 4.608 4.212l3.024-2.592c-1.008-1.188-3.132-2.88-4.752-3.996zm-23.832 3.744v4.212h32.4v-4.212zm1.332 8.352v4.176h15.588v-4.176zm5.472 2.376v12.204h4.32v-12.204zm-6.84 11.592 1.224 4.356c4.68-.972 11.052-2.304 16.992-3.6l-.324-3.852c-6.48 1.224-13.536 2.448-17.892 3.096zm17.712-28.296c.036 16.668 2.304 33.696 10.116 33.696 3.42 0 4.896-1.692 5.544-8.568-1.224-.432-2.808-1.476-3.78-2.484-.216 4.536-.612 6.516-1.404 6.516-3.42 0-6.156-14.364-5.832-29.16zm-96.804 59.904c-.252 1.692-.864 4.212-1.368 5.832l2.412.684c.576-1.476 1.224-3.744 1.908-5.796zm-6.3.72c.648 1.512 1.224 3.528 1.368 4.86l2.592-.9c-.216-1.296-.828-3.276-1.512-4.752zm-5.112-5.22v32.292h3.852v-28.548h12.708v-3.744zm15.444 0v28.008c0 .468-.144.612-.612.648-.468 0-1.836.036-3.096-.036.504.972.972 2.628 1.08 3.636 2.304 0 3.888-.072 5.04-.684 1.116-.648 1.44-1.62 1.44-3.528v-28.044zm-10.944 9.9v3.24h10.224v-3.24zm.144 6.264v3.24h9.936v-3.24zm2.772-2.34c.432.9.9 2.16 1.116 2.952l3.06-1.116c-.216-.756-.756-1.908-1.224-2.772zm-12.456-.036c.828 2.196 1.8 5.148 2.124 6.912l3.024-1.26c-.468-1.656-1.476-4.536-2.376-6.696zm-3.528 8.892c.36 2.412.72 5.544.756 7.632l3.024-.792c-.144-2.088-.504-5.148-.972-7.524zm-3.924-.468c-.18 2.916-.576 6.156-1.368 8.244.792.216 2.268.72 2.988 1.116.72-2.232 1.26-5.616 1.512-8.82zm-.072-9.468c0-.684 2.124-1.872 2.124-1.872v-.072c2.232-2.808 4.572-6.948 6.192-10.8l-3.456-1.476c-1.188 3.816-3.384 7.812-4.104 8.856-.684 1.044-1.296 1.728-1.944 1.908.432.972 1.008 2.736 1.188 3.456zm0 0c.648-.324 1.728-.576 7.164-1.116.036-.792.18-2.16.396-3.132l-6.048.432-1.584 1.08zm.252 8.352c0-.684 2.16-1.836 2.16-1.836v-.072c3.384-3.672 6.912-8.748 9.396-13.644l-3.132-2.052c-2.16 5.076-5.724 10.332-6.876 11.664-1.116 1.368-1.836 2.232-2.7 2.448.396.972 1.008 2.772 1.152 3.492zm0 0c.792-.432 2.124-.792 10.404-2.088-.036-.756.036-2.16.144-3.096l-9.144 1.26-1.548 1.116zm7.56.756c.72 2.16 1.548 5.04 1.872 6.948l2.808-1.08c-.396-1.836-1.224-4.608-2.016-6.804zm10.476-3.924v3.636c0 2.88.648 4.068 3.708 4.068h3.024c.792 0 1.728-.036 2.232-.216-.108-.828-.18-2.052-.252-2.952-.54.18-1.512.216-2.088.216-.468 0-2.088 0-2.52 0-.576 0-.684-.288-.684-1.08v-3.672zm31.248-3.348h15.372v1.98h-15.372zm0 5.076h15.372v2.016h-15.372zm0-10.152h15.372v1.98h-15.372zm-4.536-3.276v18.72h24.624v-18.72zm13.896 21.348c3.996 1.368 8.136 3.348 10.512 4.68l4.32-2.88c-2.772-1.332-7.488-3.24-11.592-4.608zm-16.956-27.468v3.924h30.204v-3.924zm12.888 1.908c-.108 1.692-.54 4.032-.936 5.688l4.176.684c.576-1.476 1.332-3.6 2.016-5.832zm-3.132 22.5c-2.484 1.548-7.344 3.42-11.16 4.392 1.008.9 2.268 2.376 2.988 3.312 3.78-1.044 8.676-2.952 11.916-4.752zm31.752-15.084v3.276h11.088v-3.276zm0 4.896v3.24h11.16v-3.24zm-1.512-9.9v3.42h14.112v-3.42zm3.456 14.868v3.456h5.436v4.032h-5.436v3.456h9.18v-10.944zm-1.908 0v12.492h3.672v-12.492zm2.088-19.404c.9 1.548 2.016 3.744 2.52 5.112l3.492-1.908c-.576-1.332-1.692-3.312-2.664-4.824zm13.716-.288v3.996h9.612v-3.996zm-3.852 14.472v4.032h15.84v-4.032zm14.328 0v.648c-2.016 7.488-7.956 11.952-15.66 13.608.756.936 1.692 2.736 2.124 3.852 8.64-2.376 15.12-7.308 17.748-17.136l-2.7-1.116-.72.144zm-9.612 3.6-3.708 1.26c3.384 6.768 8.748 11.232 16.596 13.176.54-1.188 1.728-3.024 2.664-3.96-7.416-1.44-12.888-5.184-15.552-10.476zm-1.656-18.072v3.888c0 2.412-.432 5.04-4.392 6.984.756.612 2.268 2.304 2.772 3.168 4.572-2.448 5.58-6.48 5.58-10.008v-4.032zm8.244 0v7.848c0 3.6.684 5.112 4.068 5.112h1.872c.756 0 1.548-.036 2.052-.288-.18-.972-.252-2.484-.288-3.564-.468.144-1.296.252-1.764.252-.324 0-1.152 0-1.476 0-.432 0-.468-.432-.468-1.476v-7.884zm18.828 9.828v3.276h12.132v-3.276zm0 4.896v3.24h12.096v-3.24zm-1.584-9.9v3.42h15.228v-3.42zm3.6 14.868v3.456h6.444v4.032h-6.444v3.456h10.152v-10.944zm-1.872 0v12.492h3.636v-12.492zm2.268-19.404c.9 1.548 2.052 3.744 2.52 5.112l3.456-1.908c-.576-1.332-1.656-3.312-2.628-4.824zm11.124 10.548v4.248h17.496v-4.248zm6.3-11.34v33.156h4.5v-33.156z" fill="#96f0fe"/><path d="m65.836 111.876v4.14h30.78v-4.14zm8.46 8.856v4.032h14.436v-4.032zm-1.764 9.72v3.996h15.048v-3.996zm-7.776 8.676v4.176h32.904v-4.176zm8.928-23.94c-1.008 6.228-2.808 14.22-4.32 19.26h4.86c1.296-4.824 2.988-12.816 4.212-19.26zm13.572 5.544v.468c-.432 4.356-1.584 12.672-2.7 18.828l4.5.432c1.008-6.156 2.16-13.896 2.736-19.512l-3.312-.36-.756.144zm19.332 12.996v3.06h16.812v-3.06zm-.828-17.136v3.132h18v-3.132zm7.164-2.556v25.812h3.888v-25.812zm-7.344 25.416.504 3.6c4.68-.432 11.232-1.08 17.352-1.728l-.036-3.276c-6.48.576-13.356 1.08-17.82 1.404zm4.572-11.484h9.504v1.656h-9.504zm0-4.14h9.504v1.62h-9.504zm-3.456-2.7v11.196h16.524v-11.196zm14.76-10.512c-3.96.864-10.224 1.512-15.588 1.764.396.828.792 2.196.936 3.06 5.4-.108 11.952-.648 16.56-1.584zm2.304 7.956v3.96h12.456v-3.96zm10.728 0v.936c-.288 13.932-.576 19.008-1.404 20.088-.324.504-.684.612-1.224.612-.72 0-2.088 0-3.636-.144.684 1.152 1.152 2.916 1.26 4.104 1.692.072 3.384.072 4.5-.144 1.188-.216 2.016-.612 2.808-1.836 1.188-1.62 1.476-6.876 1.8-21.708 0-.504.036-1.908.036-1.908zm-7.272-7.524c-.036 14.364.36 24.444-7.236 30.24.972.72 2.376 2.196 2.988 3.24 8.316-6.552 8.352-18.108 8.388-33.48zm44.352 1.764c1.656 1.188 3.672 2.988 4.608 4.212l3.024-2.592c-1.008-1.188-3.132-2.88-4.752-3.996zm-23.832 3.744v4.212h32.4v-4.212zm1.332 8.352v4.176h15.588v-4.176zm5.472 2.376v12.204h4.32v-12.204zm-6.84 11.592 1.224 4.356c4.68-.972 11.052-2.304 16.992-3.6l-.324-3.852c-6.48 1.224-13.536 2.448-17.892 3.096zm17.712-28.296c.036 16.668 2.304 33.696 10.116 33.696 3.42 0 4.896-1.692 5.544-8.568-1.224-.432-2.808-1.476-3.78-2.484-.216 4.536-.612 6.516-1.404 6.516-3.42 0-6.156-14.364-5.832-29.16zm-96.804 59.904c-.252 1.692-.864 4.212-1.368 5.832l2.412.684c.576-1.476 1.224-3.744 1.908-5.796zm-6.3.72c.648 1.512 1.224 3.528 1.368 4.86l2.592-.9c-.216-1.296-.828-3.276-1.512-4.752zm-5.112-5.22v32.292h3.852v-28.548h12.708v-3.744zm15.444 0v28.008c0 .468-.144.612-.612.648-.468 0-1.836.036-3.096-.036.504.972.972 2.628 1.08 3.636 2.304 0 3.888-.072 5.04-.684 1.116-.648 1.44-1.62 1.44-3.528v-28.044zm-10.944 9.9v3.24h10.224v-3.24zm.144 6.264v3.24h9.936v-3.24zm2.772-2.34c.432.9.9 2.16 1.116 2.952l3.06-1.116c-.216-.756-.756-1.908-1.224-2.772zm-12.456-.036c.828 2.196 1.8 5.148 2.124 6.912l3.024-1.26c-.468-1.656-1.476-4.536-2.376-6.696zm-3.528 8.892c.36 2.412.72 5.544.756 7.632l3.024-.792c-.144-2.088-.504-5.148-.972-7.524zm-3.924-.468c-.18 2.916-.576 6.156-1.368 8.244.792.216 2.268.72 2.988 1.116.72-2.232 1.26-5.616 1.512-8.82zm-.072-9.468c0-.684 2.124-1.872 2.124-1.872v-.072c2.232-2.808 4.572-6.948 6.192-10.8l-3.456-1.476c-1.188 3.816-3.384 7.812-4.104 8.856-.684 1.044-1.296 1.728-1.944 1.908.432.972 1.008 2.736 1.188 3.456zm0 0c.648-.324 1.728-.576 7.164-1.116.036-.792.18-2.16.396-3.132l-6.048.432-1.584 1.08zm.252 8.352c0-.684 2.16-1.836 2.16-1.836v-.072c3.384-3.672 6.912-8.748 9.396-13.644l-3.132-2.052c-2.16 5.076-5.724 10.332-6.876 11.664-1.116 1.368-1.836 2.232-2.7 2.448.396.972 1.008 2.772 1.152 3.492zm0 0c.792-.432 2.124-.792 10.404-2.088-.036-.756.036-2.16.144-3.096l-9.144 1.26-1.548 1.116zm7.56.756c.72 2.16 1.548 5.04 1.872 6.948l2.808-1.08c-.396-1.836-1.224-4.608-2.016-6.804zm10.476-3.924v3.636c0 2.88.648 4.068 3.708 4.068h3.024c.792 0 1.728-.036 2.232-.216-.108-.828-.18-2.052-.252-2.952-.54.18-1.512.216-2.088.216-.468 0-2.088 0-2.52 0-.576 0-.684-.288-.684-1.08v-3.672zm31.248-3.348h15.372v1.98h-15.372zm0 5.076h15.372v2.016h-15.372zm0-10.152h15.372v1.98h-15.372zm-4.536-3.276v18.72h24.624v-18.72zm13.896 21.348c3.996 1.368 8.136 3.348 10.512 4.68l4.32-2.88c-2.772-1.332-7.488-3.24-11.592-4.608zm-16.956-27.468v3.924h30.204v-3.924zm12.888 1.908c-.108 1.692-.54 4.032-.936 5.688l4.176.684c.576-1.476 1.332-3.6 2.016-5.832zm-3.132 22.5c-2.484 1.548-7.344 3.42-11.16 4.392 1.008.9 2.268 2.376 2.988 3.312 3.78-1.044 8.676-2.952 11.916-4.752zm31.752-15.084v3.276h11.088v-3.276zm0 4.896v3.24h11.16v-3.24zm-1.512-9.9v3.42h14.112v-3.42zm3.456 14.868v3.456h5.436v4.032h-5.436v3.456h9.18v-10.944zm-1.908 0v12.492h3.672v-12.492zm2.088-19.404c.9 1.548 2.016 3.744 2.52 5.112l3.492-1.908c-.576-1.332-1.692-3.312-2.664-4.824zm13.716-.288v3.996h9.612v-3.996zm-3.852 14.472v4.032h15.84v-4.032zm14.328 0v.648c-2.016 7.488-7.956 11.952-15.66 13.608.756.936 1.692 2.736 2.124 3.852 8.64-2.376 15.12-7.308 17.748-17.136l-2.7-1.116-.72.144zm-9.612 3.6-3.708 1.26c3.384 6.768 8.748 11.232 16.596 13.176.54-1.188 1.728-3.024 2.664-3.96-7.416-1.44-12.888-5.184-15.552-10.476zm-1.656-18.072v3.888c0 2.412-.432 5.04-4.392 6.984.756.612 2.268 2.304 2.772 3.168 4.572-2.448 5.58-6.48 5.58-10.008v-4.032zm8.244 0v7.848c0 3.6.684 5.112 4.068 5.112h1.872c.756 0 1.548-.036 2.052-.288-.18-.972-.252-2.484-.288-3.564-.468.144-1.296.252-1.764.252-.324 0-1.152 0-1.476 0-.432 0-.468-.432-.468-1.476v-7.884zm18.828 9.828v3.276h12.132v-3.276zm0 4.896v3.24h12.096v-3.24zm-1.584-9.9v3.42h15.228v-3.42zm3.6 14.868v3.456h6.444v4.032h-6.444v3.456h10.152v-10.944zm-1.872 0v12.492h3.636v-12.492zm2.268-19.404c.9 1.548 2.052 3.744 2.52 5.112l3.456-1.908c-.576-1.332-1.656-3.312-2.628-4.824zm11.124 10.548v4.248h17.496v-4.248zm6.3-11.34v33.156h4.5v-33.156z" fill="#2d3f58"/></svg>