<svg fill="none" height="79" viewBox="0 0 66 79" width="66" xmlns="http://www.w3.org/2000/svg"><g stroke-width="2"><path d="m30.4725 44.5143-21.16977-13.2793-4.33314 3.3873 17.38851 9.2541-8.2723 6.4667 15.8488 7.2846-6.3027 4.927 19.666 8.1084-12.7834-9.0462 5.5149-4.3112-14.4451-7.1125z" fill="#fea996" stroke="#fea996"/><path d="m52.3028 23.7077-17.9865-21.93144-4.8638 1.68628 14.6502 17.79386-10.7126 3.2001 13.6039 15.0726-7.9913 2.1538 17.4577 16.2551-10.3289-13.4839 8.2501-3.6312-12.7914-13.9152z" fill="#fea996" stroke="#fea996"/><g fill="#2d3f58" stroke="#2d3f58"><path d="m27.4725 45.5143-21.16977-13.2793-4.33314 3.3873 17.38851 9.2541-8.2723 6.4667 15.8488 7.2846-6.3027 4.927 19.666 8.1084-12.7834-9.0462 5.5149-4.3112-14.4451-7.1125z"/><path d="m49.3028 24.7077-17.9865-21.93144-4.8638 1.68628 14.6502 17.79386-10.7126 3.2001 13.6039 15.0726-7.9913 2.1538 17.4577 16.2551-10.3289-13.4839 8.2501-3.6312-12.7914-13.9152z"/></g></g></svg>