<svg fill="none" height="26" viewBox="0 0 32 26" width="32" xmlns="http://www.w3.org/2000/svg" xmlns:xlink="http://www.w3.org/1999/xlink"><mask id="a" fill="#000" height="26" maskUnits="userSpaceOnUse" width="32" x="0" y="0"><path d="m0 0h32v26h-32z" fill="#fff"/><path d="m13.5955 3.31343c1.0686-1.75124 3.7404-1.75124 4.809 0l10.2194 16.74627c1.0687 1.7512-.2672 3.9403-2.4046 3.9403h-20.43862c-2.13738 0-3.47324-2.1891-2.40455-3.9403z" fill="#000"/><path d="m15.3328 16.4215h1.3328l.2915-4.8466.0555-1.82565h-2.0407l.0555 1.82565zm.6525 3.4937c.7358 0 1.2772-.5385 1.2772-1.2609s-.5414-1.2477-1.2772-1.2477c-.7219 0-1.2633.5253-1.2633 1.2477s.5414 1.2609 1.2633 1.2609z" fill="#000"/></mask><path d="m13.5955 3.31343c1.0686-1.75124 3.7404-1.75124 4.809 0l10.2194 16.74627c1.0687 1.7512-.2672 3.9403-2.4046 3.9403h-20.43862c-2.13738 0-3.47324-2.1891-2.40455-3.9403z" fill="#ffdc62"/><g fill="#2d3f58"><path d="m15.3328 16.4215h1.3328l.2915-4.8466.0555-1.82565h-2.0407l.0555 1.82565zm.6525 3.4937c.7358 0 1.2772-.5385 1.2772-1.2609s-.5414-1.2477-1.2772-1.2477c-.7219 0-1.2633.5253-1.2633 1.2477s.5414 1.2609 1.2633 1.2609z"/><path d="m3.37613 20.0597 1.70722 1.0418zm25.24777 0 1.7072-1.0418zm-10.2194-16.74627-1.7072 1.04183zm-4.809 0-1.7073-1.04182zm1.7373 13.10807-1.996.1258.1181 1.8742h1.8779zm1.3328 0v2h1.8833l.113-1.8799zm.2915-4.8466 1.9964.1201.0018-.0296.0009-.0297zm.0555-1.82565 1.9991.06081.0627-2.06081h-2.0618zm-2.0407 0v-2h-2.0618l.0627 2.06081zm.0555 1.82565-1.9991.0608.001.0325.0021.0325zm1.6699-7.21964 10.2194 16.74624 3.4144-2.0836-10.2193-16.74629zm9.522 17.64474h-20.43862v4h20.43862zm-21.13595-.8985 10.21935-16.74624-3.4145-2.08365-10.21929 16.74629zm.69733.8985c-.35473 0-.58412-.1697-.69733-.3553-.10772-.1765-.11434-.3558 0-.5432l-3.41444-2.0836c-1.984442 3.2519.61385 6.9821 4.11177 6.9821zm21.13602-.8985c.1143.1874.1077.3667 0 .5432-.1133.1856-.3426.3553-.6974.3553v4c3.498 0 6.0962-3.7303 4.1118-6.9821zm-6.8049-18.82989c-1.8483-3.028815-6.3753-3.028812-8.2236 0l3.4145 2.08365c.1269-.20806.3701-.35526.6973-.35526s.5704.1472.6973.35526zm-4.779 16.14989h1.3328v-4h-1.3328zm3.3291-1.8799.2916-4.8466-3.9928-.2402-.2915 4.8466zm.2943-4.9059.0555-1.82564-3.9982-.12161-.0555 1.82565zm-1.9436-3.88645h-2.0407v4.00005h2.0407zm-4.0398 2.06081.0555 1.82564 3.9982-.1216-.0556-1.82565zm.0586 1.89064.3054 4.8466 3.9921-.2516-.3055-4.8466zm2.9539 10.2145c1.8203 0 3.2772-1.4139 3.2772-3.2609h-4c0-.1531.0645-.3559.2306-.5203.1656-.1638.3598-.2188.4922-.2188zm3.2772-3.2609c0-1.8744-1.4849-3.2477-3.2772-3.2477v4c-.1178 0-.3105-.0482-.4817-.215-.1743-.17-.2411-.3815-.2411-.5373zm-3.2772-3.2477c-1.793 0-3.2633 1.3876-3.2633 3.2477h4c0 .1552-.0661.3636-.2374.5319-.1685.1655-.3647.2204-.4993.2204zm-3.2633 3.2477c0 1.8326 1.4424 3.2609 3.2633 3.2609v-4c.1493 0 .3471.062.5097.2242.1632.1626.227.3624.227.5149z" mask="url(#a)"/></g></svg>