<svg fill="none" height="259" viewBox="0 0 657 259" width="657" xmlns="http://www.w3.org/2000/svg" xmlns:xlink="http://www.w3.org/1999/xlink"><filter id="a" color-interpolation-filters="sRGB" filterUnits="userSpaceOnUse" height="53.5001" width="26.0264" x="220.474" y="34.4999"><feFlood flood-opacity="0" result="BackgroundImageFix"/><feGaussianBlur in="BackgroundImageFix" stdDeviation="1"/><feComposite in2="SourceAlpha" operator="in" result="effect1_backgroundBlur_454_44"/><feBlend in="SourceGraphic" in2="effect1_backgroundBlur_454_44" mode="normal" result="shape"/></filter><filter id="b" color-interpolation-filters="sRGB" filterUnits="userSpaceOnUse" height="37.8799" width="20.5581" x="221.748" y="210.709"><feFlood flood-opacity="0" result="BackgroundImageFix"/><feGaussianBlur in="BackgroundImageFix" stdDeviation="1"/><feComposite in2="SourceAlpha" operator="in" result="effect1_backgroundBlur_454_44"/><feBlend in="SourceGraphic" in2="effect1_backgroundBlur_454_44" mode="normal" result="shape"/></filter><filter id="c" color-interpolation-filters="sRGB" filterUnits="userSpaceOnUse" height="23.5524" width="24.5" x="326" y="146"><feFlood flood-opacity="0" result="BackgroundImageFix"/><feGaussianBlur in="BackgroundImageFix" stdDeviation="1"/><feComposite in2="SourceAlpha" operator="in" result="effect1_backgroundBlur_454_44"/><feBlend in="SourceGraphic" in2="effect1_backgroundBlur_454_44" mode="normal" result="shape"/></filter><filter id="d" color-interpolation-filters="sRGB" filterUnits="userSpaceOnUse" height="24" width="24.5" x="341.5" y="58.5"><feFlood flood-opacity="0" result="BackgroundImageFix"/><feGaussianBlur in="BackgroundImageFix" stdDeviation="1"/><feComposite in2="SourceAlpha" operator="in" result="effect1_backgroundBlur_454_44"/><feBlend in="SourceGraphic" in2="effect1_backgroundBlur_454_44" mode="normal" result="shape"/></filter><filter id="e" color-interpolation-filters="sRGB" filterUnits="userSpaceOnUse" height="44.0893" width="25.75" x="426.303" y="133.956"><feFlood flood-opacity="0" result="BackgroundImageFix"/><feGaussianBlur in="BackgroundImageFix" stdDeviation="1"/><feComposite in2="SourceAlpha" operator="in" result="effect1_backgroundBlur_454_44"/><feBlend in="SourceGraphic" in2="effect1_backgroundBlur_454_44" mode="normal" result="shape"/></filter><filter id="f" color-interpolation-filters="sRGB" filterUnits="userSpaceOnUse" height="31.5768" width="28.438" x="482.277" y="103.124"><feFlood flood-opacity="0" result="BackgroundImageFix"/><feGaussianBlur in="BackgroundImageFix" stdDeviation="1"/><feComposite in2="SourceAlpha" operator="in" result="effect1_backgroundBlur_454_44"/><feBlend in="SourceGraphic" in2="effect1_backgroundBlur_454_44" mode="normal" result="shape"/></filter><filter id="g" color-interpolation-filters="sRGB" filterUnits="userSpaceOnUse" height="24.4271" width="17.9429" x="376.437" y="224.22"><feFlood flood-opacity="0" result="BackgroundImageFix"/><feGaussianBlur in="BackgroundImageFix" stdDeviation="1"/><feComposite in2="SourceAlpha" operator="in" result="effect1_backgroundBlur_454_44"/><feBlend in="SourceGraphic" in2="effect1_backgroundBlur_454_44" mode="normal" result="shape"/></filter><filter id="h" color-interpolation-filters="sRGB" filterUnits="userSpaceOnUse" height="20.8525" width="20.1748" x="555.323" y="175.514"><feFlood flood-opacity="0" result="BackgroundImageFix"/><feGaussianBlur in="BackgroundImageFix" stdDeviation="1"/><feComposite in2="SourceAlpha" operator="in" result="effect1_backgroundBlur_454_44"/><feBlend in="SourceGraphic" in2="effect1_backgroundBlur_454_44" mode="normal" result="shape"/></filter><filter id="i" color-interpolation-filters="sRGB" filterUnits="userSpaceOnUse" height="20.8525" width="20.1748" x="558.384" y="228.689"><feFlood flood-opacity="0" result="BackgroundImageFix"/><feGaussianBlur in="BackgroundImageFix" stdDeviation="1"/><feComposite in2="SourceAlpha" operator="in" result="effect1_backgroundBlur_454_44"/><feBlend in="SourceGraphic" in2="effect1_backgroundBlur_454_44" mode="normal" result="shape"/></filter><path d="m59 109.117c11.4074-.986 15.9877-18.489 16.8519-27.117 0 17.6232 11.9271 25.363 18.018 27.081.0433.011.0867.023.1301.036-.0431-.012-.0864-.024-.1301-.036-8.3034-2.23-13.8172 9.621-16.5414 19.439.0623 2.053-.3792 4.219-1.4766 6.48.3324-1.896.8246-4.13 1.4766-6.48-.2907-9.586-11.5666-16.696-18.3285-19.403z" fill="#ffdc62"/><path d="m75.8519 82c-.8642 8.628-5.4445 26.131-16.8519 27.117 8.2099 3.286 23.0741 13.064 16.8519 25.883 1.7283-9.86 7.7777-28.841 18.1481-25.883-6.0494-1.644-18.1481-9.3675-18.1481-27.117z" stroke="#ffdc62"/><path d="m118 63.5352c8.8-.8559 12.333-16.0467 13-23.5352 0 15.2956 9.201 22.0131 13.9 23.5039.033.0101.066.0205.1.0313-.033-.0102-.067-.0206-.1-.0313-6.406-1.9348-10.659 8.3504-12.761 16.872.048 1.7816-.292 3.6618-1.139 5.6241.256-1.6458.636-3.5845 1.139-5.6241-.224-8.32-8.923-14.4913-14.139-16.8407z" fill="#ffdc62"/><path d="m131 40c-.667 7.4885-4.2 22.6793-13 23.5352 6.333 2.8525 17.8 11.3391 13 22.4648 1.333-8.5579 6-25.0319 14-22.4648-4.667-1.4262-14-8.13-14-23.5352z" stroke="#ffdc62"/><g fill="#2d3f58"><path d="m253.998 39.1496h100.02c11.046 0 20 8.9543 20 20v11.9916c0 11.0457-8.954 20-20 20h-53.769c-6.627 0-12 5.3726-12 11.9998v4.79 5.616c0 6.628 5.373 12 12 12h38.722c11.046 0 20 8.955 20 20v12.801c0 11.046-8.954 20-20 20h-38.722c-6.627 0-12 5.373-12 12v48.652c0 11.046-8.954 20-20 20h-22.251c-11.046 0-20-8.954-20-20v-171.8504c0-15.464 12.536-28 28-28z"/><path d="m510.795 109.048h62.205c8.837 0 16 7.163 16 16v6.203c0 8.837-7.163 16-16 16h-34.631c-4.419 0-8 3.582-8 8v.961 4.921c0 4.418 3.581 8 8 8h28.544c8.836 0 16 7.163 16 16v2.873c0 8.837-7.164 16-16 16h-28.544c-4.419 0-8 3.582-8 8v2.1c0 4.418 3.581 8 8 8h32.253c8.836 0 16 7.164 16 16v3.07c0 8.837-7.164 16-16 16h-59.827c-13.254 0-24-10.745-24-24v-100.128c0-13.255 10.746-24 24-24z"/><path d="m385.088 225.254c18.981-14.613 42.898-30.699 33.784-45.711-7.634-12.575-21.218-12.552-31.339-9.974-4.032 1.027-8.399-1.577-8.712-5.726l-1.238-16.405c-.232-3.075.739-6.212 3.522-7.541 10.742-5.13 37.097-6.709 54.748-.656 43.786 15.015 19.548 64.157-5.593 89.345-.638.639-.184 1.738.718 1.738h20.982c3.314 0 6 2.686 6 6v14.948c0 3.314-2.686 6-6 6h-61.932c-4.419 0-8-3.582-8-8v-5.741-12.015c0-2.45 1.118-4.767 3.06-6.262z"/></g><path d="m247 32h100.02c11.046 0 20 8.9543 20 20v11.9916c0 11.0457-8.954 20-20 20h-53.768c-6.628 0-12 5.3726-12 12v4.7904 5.616c0 6.627 5.372 12 12 12h38.721c11.046 0 20 8.954 20 20v12.801c0 11.045-8.954 20-20 20h-38.721c-6.628 0-12 5.372-12 12v48.651c0 11.046-8.955 20-20 20h-22.252c-11.046 0-20-8.954-20-20v-171.85c0-15.464 12.536-28 28-28z" fill="#7cedff"/><path d="m503.798 101.898h62.204c8.837 0 16 7.164 16 16v6.204c0 8.836-7.163 16-16 16h-34.631c-4.418 0-8 3.581-8 8v.961 4.92c0 4.419 3.582 8 8 8h28.544c8.837 0 16 7.164 16 16v2.873c0 8.837-7.163 16-16 16h-28.544c-4.418 0-8 3.582-8 8v2.101c0 4.418 3.582 8 8 8h32.253c8.837 0 16 7.163 16 16v3.07c0 8.836-7.163 16-16 16h-59.826c-13.255 0-24-10.745-24-24v-100.129c0-13.255 10.745-24 24-24z" fill="#7cedff"/><path d="m378.09 218.105c18.982-14.614 42.899-30.7 33.785-45.711-7.635-12.575-21.218-12.552-31.34-9.974-4.032 1.027-8.399-1.578-8.712-5.727l-1.237-16.404c-.232-3.076.738-6.212 3.522-7.541 10.741-5.13 37.097-6.71 54.748-.657 43.786 15.016 19.547 64.158-5.594 89.346-.637.638-.183 1.737.719 1.737h20.982c3.313 0 6 2.687 6 6v14.948c0 3.314-2.687 6-6 6h-61.933c-4.418 0-8-3.581-8-8v-5.74-12.015c0-2.451 1.118-4.767 3.06-6.262z" fill="#ffdc62"/><g filter="url(#a)"><path d="m243 38c-6.269.2979-19.7 7.5583-19 21.5v25" stroke="#fff" stroke-linecap="round" stroke-opacity=".8" stroke-width="3"/></g><g filter="url(#b)"><path d="m225.248 214.209v20.108c.146 3.873 3.062 11.439 13.558 10.724" stroke="#fff" stroke-linecap="round" stroke-opacity=".8" stroke-width="3"/></g><g filter="url(#c)"><path d="m347 149.5c0 6.703-2.193 17.394-17.5 16.5" stroke="#fff" stroke-linecap="round" stroke-opacity=".8" stroke-width="3"/></g><g filter="url(#d)"><path d="m362.5 62c0 7.1496-2.63 17-17.5 17" stroke="#fff" stroke-linecap="round" stroke-opacity=".8" stroke-width="3"/></g><g filter="url(#e)"><path d="m429.804 137.457c9.621 2.234 23.617 15.193 17.056 37.088" stroke="#fff" stroke-linecap="round" stroke-opacity=".8" stroke-width="3"/></g><g filter="url(#f)"><path d="m485.785 131.201v-8.49c-.35-11.797 11.371-16.087 17.057-16.087h4.373" stroke="#fff" stroke-linecap="round" stroke-opacity=".8" stroke-width="3"/></g><g filter="url(#g)"><path d="m379.946 227.72v8.344c0 3.381-.318 8.021 2.973 8.796.415.098.88.194 1.4.288h6.56" stroke="#fff" stroke-linecap="round" stroke-opacity=".8" stroke-width="3"/></g><g filter="url(#h)"><path d="m571.943 179.014c.438 4.468-1.574 13.137-13.12 13.852" stroke="#fff" stroke-linecap="round" stroke-opacity=".8" stroke-width="3"/></g><g filter="url(#i)"><path d="m575.005 232.189c.437 4.468-1.575 13.137-13.121 13.852" stroke="#fff" stroke-linecap="round" stroke-opacity=".8" stroke-width="3"/></g><path d="m163.8 187h19.508c4.8 0 8.692 3.892 8.692 8.692s-3.892 8.692-8.692 8.692h-14.193c-2.252 0-4.077 1.826-4.077 4.078 0 3.247 2.632 5.879 5.879 5.879h10.349c4.382 0 7.935 3.552 7.935 7.934s-3.553 7.934-7.935 7.934h-12.699c-1.949 0-3.529 1.581-3.529 3.53 0 2.599 2.107 4.706 4.706 4.706h13.183c4.407 0 7.979 3.573 7.979 7.979 0 4.407-3.572 7.98-7.979 7.98h-19.564c-10.142 0-18.363-8.222-18.363-18.363v-30.241c0-10.383 8.417-18.8 18.8-18.8z" stroke="#bebebe" stroke-width="2"/><path d="m77.1113 243.667v-45.93c0-5.93 4.807-10.737 10.7368-10.737s10.7368 4.807 10.7368 10.737v11.452c0 2.209 1.7911 4 4.0001 4h8.776c2.209 0 4-1.791 4-4v-12.011c0-5.621 4.557-10.178 10.178-10.178s10.177 4.557 10.177 10.178v47.048c0 5.621-4.556 10.178-10.177 10.178s-10.178-4.557-10.178-10.178v-8.426c0-2.055-1.666-3.721-3.721-3.721h-9.334c-2.055 0-3.7211 1.666-3.7211 3.721v7.867c0 5.929-4.807 10.737-10.7368 10.737s-10.7368-4.808-10.7368-10.737z" stroke="#bebebe" stroke-width="2"/><path d="m62.324 187h-48.1788c-5.60306 0-10.1452 4.542-10.1452 10.145s4.54214 10.145 10.1452 10.145h7.964c2.9171 0 5.2818 2.365 5.2818 5.282v31.817c0 5.86 4.7508 10.611 10.6112 10.611s10.6112-4.751 10.6112-10.611v-31.712c0-2.975 2.4117-5.387 5.3868-5.387h8.3238c5.603 0 10.1451-4.542 10.1451-10.145s-4.5421-10.145-10.1451-10.145z" stroke="#bebebe" stroke-width="2"/><path d="m159.8 185h19.508c4.8 0 8.692 3.892 8.692 8.692s-3.892 8.692-8.692 8.692h-14.193c-2.252 0-4.077 1.826-4.077 4.078 0 3.247 2.632 5.879 5.879 5.879h10.349c4.382 0 7.935 3.552 7.935 7.934s-3.553 7.934-7.935 7.934h-12.699c-1.949 0-3.529 1.581-3.529 3.53 0 2.599 2.107 4.706 4.706 4.706h13.183c4.407 0 7.979 3.573 7.979 7.979 0 4.407-3.572 7.98-7.979 7.98h-19.564c-10.142 0-18.363-8.222-18.363-18.363v-30.241c0-10.383 8.417-18.8 18.8-18.8z" fill="#bebebe"/><path d="m73.1113 241.667v-45.93c0-5.93 4.807-10.737 10.7368-10.737s10.7368 4.807 10.7368 10.737v11.452c0 2.209 1.7909 4 4 4h8.7761c2.209 0 4-1.791 4-4v-12.011c0-5.621 4.557-10.178 10.178-10.178s10.177 4.557 10.177 10.178v47.048c0 5.621-4.556 10.178-10.177 10.178s-10.178-4.557-10.178-10.178v-8.426c0-2.055-1.666-3.721-3.721-3.721h-9.3343c-2.055 0-3.7208 1.666-3.7208 3.721v7.867c0 5.929-4.807 10.737-10.7368 10.737s-10.7368-4.808-10.7368-10.737z" fill="#bebebe"/><path d="m58.324 185h-48.1788c-5.60306 0-10.1452 4.542-10.1452 10.145s4.54214 10.145 10.1452 10.145h7.964c2.9171 0 5.2818 2.365 5.2818 5.282v31.817c0 5.86 4.7508 10.611 10.6112 10.611s10.6112-4.751 10.6112-10.611v-31.712c0-2.975 2.4117-5.387 5.3868-5.387h8.3238c5.603 0 10.1451-4.542 10.1451-10.145s-4.5421-10.145-10.1451-10.145z" fill="#bebebe"/><path d="m529.61 39.0868 3.575-18.6576c.647-3.3758 3.6-5.8167 7.037-5.8167 4.499 0 7.884 4.0962 7.038 8.5139l-2.603 13.584c-.237 1.2331.708 2.3764 1.964 2.3764h5.221c1.105 0 2-.8954 2-2v-26.1997c0-3.81349 3.091-6.90492 6.905-6.90492 3.813 0 6.905 3.09143 6.905 6.90492v26.1997c0 1.1046.895 2 2 2h3.05c3.687 0 6.675 2.9884 6.675 6.6749 0 3.6864-2.988 6.6748-6.675 6.6748h-3.05c-1.105 0-2 .8954-2 2v7.6585c0 3.8135-3.092 6.9049-6.905 6.9049-3.814 0-6.905-3.0914-6.905-6.9049v-7.6585c0-1.1046-.895-2-2-2h-15.05c-4.971 0-8.739-4.4873-7.879-9.3841z" stroke="#2d3f58"/><path d="m590.287 30.676v-4.5925c0-3.3194 2.691-6.0103 6.01-6.0103 3.32 0 6.01 2.6909 6.01 6.0103v4.5925h3.864c2.996 0 5.425 2.4287 5.425 5.4246 0 2.996-2.429 5.4247-5.425 5.4247h-2.006c-1.026 0-1.858.8318-1.858 1.8578v13.6765c.368 2.3238 2.497 2.595 5.028 2.0839 3.601-.7272 6.769 2.1036 5.525 5.5603-.29.804-.8 1.5208-1.53 1.9648-8.109 4.9307-21.59 1.9951-21.59-8.3761v-15.0187c0-.9657-.782-1.7485-1.748-1.7485h-1.569c-2.996 0-5.425-2.4287-5.425-5.4247 0-2.9959 2.429-5.4246 5.425-5.4246z" stroke="#2d3f58"/><path d="m633.07 49.9644v13.0426c0 3.3099-2.683 5.993-5.993 5.993-3.309 0-5.993-2.6832-5.993-5.993v-53.52626c0-3.30981 2.684-5.99295 5.993-5.99295 3.31 0 5.993 2.68314 5.993 5.99295v22.04116c0 1.5711 1.753 2.5504 3.219 1.9865 10.175-3.9127 19.003 4.1429 19.711 16.456v13.694c0 2.9501-2.392 5.3416-5.342 5.3416s-5.341-2.3915-5.341-5.3415v-13.6941c0-4.1533-2.606-6.1804-6.514-6.1804-2.866-.2472-5.733 2.7193-5.733 6.1804z" stroke="#2d3f58"/><path d="m525.345 36.5991 3.576-18.6576c.646-3.3759 3.6-5.8168 7.037-5.8168 4.498 0 7.884 4.0962 7.037 8.514l-2.603 13.584c-.236 1.2331.709 2.3764 1.964 2.3764h5.221c1.105 0 2-.8954 2-2v-26.19974c0-3.81348 3.092-6.90491 6.905-6.90491 3.814 0 6.905 3.09143 6.905 6.90491v26.19974c0 1.1046.896 2 2 2h3.051c3.686 0 6.675 2.9884 6.675 6.6748s-2.989 6.6748-6.675 6.6748h-3.051c-1.104 0-2 .8955-2 2v7.6586c0 3.8135-3.091 6.9049-6.905 6.9049-3.813 0-6.905-3.0914-6.905-6.9049v-7.6586c0-1.1045-.895-2-2-2h-15.049c-4.972 0-8.74-4.4872-7.88-9.3841z" fill="#2d3f58" stroke="#fff" stroke-opacity=".9" stroke-width="2"/><path d="m586.022 28.1882v-4.5925c0-3.3194 2.691-6.0103 6.01-6.0103 3.32 0 6.011 2.6909 6.011 6.0103v4.5925h3.864c2.996 0 5.425 2.4287 5.425 5.4247 0 2.9959-2.429 5.4246-5.425 5.4246h-2.006c-1.026 0-1.858.8318-1.858 1.8578v13.6765c.368 2.3238 2.496 2.595 5.027 2.0839 3.601-.7272 6.77 2.1036 5.525 5.5603-.29.804-.799 1.5209-1.529 1.9648-8.109 4.9307-21.59 1.9951-21.59-8.3761v-15.0187c0-.9657-.783-1.7485-1.749-1.7485h-1.569c-2.996 0-5.425-2.4287-5.425-5.4246 0-2.996 2.429-5.4247 5.425-5.4247z" fill="#2d3f58" stroke="#fff" stroke-opacity=".9" stroke-width="2"/><path d="m628.806 47.4766v13.0426c0 3.3099-2.683 5.993-5.993 5.993s-5.993-2.6831-5.993-5.993v-53.52625c0-3.30982 2.683-5.99295 5.993-5.99295s5.993 2.68314 5.993 5.99295v22.04115c0 1.5711 1.752 2.5504 3.219 1.9865 10.175-3.9127 19.002 4.1429 19.71 16.456v13.6941c0 2.95-2.391 5.3415-5.341 5.3415s-5.342-2.3915-5.342-5.3415v-13.6941c0-4.1533-2.605-6.1804-6.514-6.1804-2.866-.2472-5.732 2.7194-5.732 6.1804z" fill="#2d3f58" stroke="#fff" stroke-opacity=".9" stroke-width="2"/></svg>