<svg fill="none" height="28" viewBox="0 0 139 28" width="139" xmlns="http://www.w3.org/2000/svg"><g fill="#2d3f58"><path d="m53.5246 1h10.4754c1.6569 0 3 1.34315 3 3v.70559c0 1.65685-1.3431 3-3 3h-5.4514c-.5523 0-1 .44771-1 1v.57292 1.26789c0 .5522.4477 1 1 1h4.4701c1.6569 0 3 1.3431 3 3v.121c0 1.6568-1.3431 3-3 3h-4.4701c-.5523 0-1 .4477-1 1v1.177c0 .5523.4477 1 1 1h5.068c1.6569 0 3 1.3431 3 3v.1556c0 1.6569-1.3431 3-3 3h-10.092c-1.6569 0-3-1.3431-3-3v-20c0-1.65685 1.3431-3 3-3z"/><path d="m26.3607 24v-20c0-1.65685 1.3431-3 3-3h1.2441c1.6569 0 3 1.34315 3 3v6.1019c0 .5523.4477 1 1 1h3.6595c.5523 0 1-.4477 1-1v-6.1019c0-1.65685 1.3431-3 3-3h.8668c1.6569 0 3 1.34315 3 3v20c0 1.6569-1.3431 3-3 3h-.8668c-1.6569 0-3-1.3431-3-3v-4.6115c0-.5522-.4477-1-1-1h-3.6595c-.5523 0-1 .4478-1 1v4.6115c0 1.6569-1.3431 3-3 3h-1.2441c-1.6569 0-3-1.3431-3-3z"/><path d="m21.4012 1h-18.4012c-1.65685 0-3 1.34315-3 3v.96494c0 1.65685 1.34315 3 3 3h4.78689c.55228 0 1 .44771 1 1v15.03506c0 1.6569 1.34311 3 3.00001 3h.5901c1.6569 0 3-1.3431 3-3v-15.03506c0-.55229.4478-1 1.0001-1h5.0241c1.6569 0 3-1.34315 3-3v-.96494c0-1.65685-1.3431-3-3-3z"/><path d="m125.878.636364h9.675c1.904 0 3.447 1.543086 3.447 3.446576s-1.543 3.44658-3.447 3.44658h-5.838c-.893 0-1.617.72392-1.617 1.61692v.93556c0 .7708.625 1.3957 1.396 1.3957h5.228c1.738 0 3.146 1.4086 3.146 3.1461 0 1.7376-1.408 3.1462-3.146 3.1462h-5.228c-.771 0-1.396.6248-1.396 1.3957v.6396c0 .6796.551 1.2305 1.231 1.2305h6.065c1.747 0 3.164 1.4165 3.164 3.1639s-1.417 3.1639-3.164 3.1639h-10.99c-2.085 0-3.774-1.6898-3.774-3.7743v-17.70426c0-2.89876 2.35-5.248676 5.248-5.248676z"/><path d="m99.7317 8.51616-1.0497-3.84897c-.1095-.40147.044-.83379.3888-1.06681 8.6992-5.87933 15.4812-.82654 16.3722 1.96156 2.057 6.43806-1.056 12.91886-4.943 15.81596h4.537c.552 0 1 .4477 1 1v4.1221c0 .5523-.448 1-1 1h-12.902c-.552 0-1-.4477-1-1v-4.5845c0-.3357.172-.6494.448-.8391 3.316-2.2724 4.353-3.9282 4.931-5.1743l.025-.0537c.586-1.2627 1.207-2.6024 1.173-3.9914-.105-4.26004-4.183-3.38266-6.736-2.64611-.538.15522-1.097-.15452-1.2443-.69473z"/><path d="m77 25.3636v-23.3636c0-1.104569.8954-2 2-2h14.2584c1.1046 0 2 .895432 2 2v3.31818c0 1.10457-.8954 2-2 2h-7.3464c-.5523 0-1 .44772-1 1v3.01132c0 .5523.4477 1 1 1h5.5205c1.1046 0 2 .8955 2 2v2.4432c0 1.1046-.8954 2-2 2h-5.5205c-.5523 0-1 .4477-1 1v6.5909c0 .5523-.4477 1-1 1h-4.912c-1.1046 0-2-.8954-2-2z"/></g></svg>