<svg fill="none" height="101" viewBox="0 0 165 101" width="165" xmlns="http://www.w3.org/2000/svg"><path d="m126.704 11.2087c1.512.7057 2.927 1.6195 4.253 2.6575 20.398 15.971 33.074 33.9814 33.846 60.9987.408 14.3171-12.009 24.3538-25.878 24.3908-7.015.0186-14.282.038-22.45.0601-23.1027.0624-32.4036.0868-53.1149.1428-20.7113.0562-48.2637 3.8984-50.9356-14.984-2.1866-15.4532-.2902-31.6554 14.3621-49.5003 10.3917-12.6561 21.026-21.8684 36.795-27.05461 18.5068-6.08662 45.1944-5.07538 63.1224 3.28901z" fill="#96f0fe"/><path d="m112.973 14.0222c1.512.6805 2.917 1.5907 4.231 2.6268 18.784 14.81 30.596 32.978 31.752 58.2073.658 14.3612-11.828 24.4463-25.744 24.4461-6.105-.0001-12.452-.0001-19.517 0-21.6866.0005-30.4178 0-49.8603.0005-19.4425.0006-45.29843 3.5251-47.84957-14.14-2.08779-14.4568-.34429-29.6036 13.36987-46.2547 9.7265-11.8094 19.6885-20.3977 34.4797-25.2081 17.3154-5.63126 42.2917-7.26266 59.1383.3221z" fill="#96f0fe" fill-opacity=".05"/><path d="m120.236 10.0217c1.492.6876 2.887 1.5871 4.193 2.6073 20.67 16.1396 33.963 35.4988 35.104 62.9925.599 14.4334-11.936 24.5675-25.923 24.5125-7.036-.028-14.328-.057-22.52-.089-23.266-.0907-32.6329-.1281-53.491-.2097-20.8581-.0814-48.58308 3.5697-51.38756-15.2861-2.29513-15.4307-.48265-31.5815 14.16636-49.2864 10.3894-12.5567 21.0439-21.6764 36.8937-26.74549 18.6192-5.95478 44.9095-6.81606 62.9645 1.50439z" fill="#edfdff" fill-opacity=".29"/><g fill="#fff"><path d="m101.457 12.2344c5.985-2.26146 13.318 1.9794 10.975 9.9836-2.928 10.0052-21.6301-4.7078-10.975-9.9836z" fill-opacity=".3"/><path d="m121.271 26.8175c15.728.7069 29.767 16.0368 18.299 30.4454-14.336 18.0108-47.2349-29.1264-18.299-30.4454z" fill-opacity=".3"/><path d="m40.8731 59.6268 1.2777-19.866c.1354-2.1051 1.8823-3.7432 3.9917-3.7432h18.3984c2.3508 0 4.1947 2.0174 3.9839 4.3587l-1.7888 19.866c-.1857 2.0618-1.9138 3.6413-3.9839 3.6413h-17.8873c-2.3101 0-4.14-1.9514-3.9917-4.2568z" fill-opacity=".5" stroke="#252525" stroke-opacity=".71" stroke-width="2"/><path d="m91.7738 59.6268 1.2777-19.866c.1354-2.1051 1.8823-3.7432 3.9918-3.7432h18.3987c2.35 0 4.194 2.0174 3.984 4.3587l-1.789 19.866c-.186 2.0618-1.914 3.6413-3.984 3.6413h-17.8875c-2.3101 0-4.14-1.9514-3.9917-4.2568z" fill-opacity=".5" stroke="#252525" stroke-opacity=".71" stroke-width="2"/></g><path d="m68.2004 49.574h23.6581" stroke="#252525" stroke-opacity=".71" stroke-width="2"/><path d="m.452209 20.9367c6.542481-.5745 9.169391-10.7717 9.664991-15.79852 0 10.26752 6.8406 14.77682 10.3339 15.77752.0249.0068.0497.0138.0746.021-.0247-.0068-.0495-.0138-.0746-.021-4.7622-1.2988-7.9246 5.6054-9.4869 11.3257.0357 1.196-.2175 2.4581-.847 3.7753.1907-1.1048.473-2.4061.847-3.7753-.1668-5.5849-6.63386-9.7276-10.511991-11.3047z" fill="#ffdc62"/><path d="m10.1172 5.13818c-.4956 5.02682-3.12251 15.22402-9.664991 15.79852 4.708611 1.9148 13.233691 7.6116 9.664991 15.08.9913-5.7446 4.4608-16.8032 10.4085-15.08-3.4695-.9574-10.4085-5.4574-10.4085-15.79852z" stroke="#ffdc62"/><path d="m19.0919 8.32597c3.0376-.28024 4.2572-5.25449 4.4874-7.706585 0 5.008545 3.1759 7.208185 4.7978 7.696355.0116.0033.0231.00671.0347.01023-.0115-.00332-.023-.00673-.0347-.01023-2.211-.63356-3.6792 2.73436-4.4046 5.52476.0165.5834-.101 1.199-.3932 1.8416.0885-.5389.2195-1.1737.3932-1.8416-.0775-2.7244-3.08-4.7452-4.8806-5.51453z" fill="#ffdc62"/><path d="m23.5793.619385c-.2302 2.452095-1.4498 7.426345-4.4874 7.706585 2.1862.93408 6.1442 3.71303 4.4874 7.35613.4602-2.8023 2.071-8.19671 4.8325-7.35613-1.6109-.46701-4.8325-2.66214-4.8325-7.706585z" stroke="#ffdc62"/><path d="m64.9743 83.4639h30.1103" stroke="#252525" stroke-opacity=".71" stroke-width="2"/></svg>