<svg fill="none" height="124" viewBox="0 0 157 124" width="157" xmlns="http://www.w3.org/2000/svg"><path d="m118.955 38.4466c1.499.6827 2.902 1.568 4.216 2.5741 19.676 15.0598 32.01 32.0161 33.088 57.2438.611 14.3115-12.124 24.4325-26.204 24.4685-6.594.018-13.44.035-21.093.056-22.6282.059-31.7383.083-52.0247.136-20.2865.054-47.27367 3.732-49.89077-14.341-2.14179-14.7911-.28422-30.2986 14.06747-47.3786 10.1786-12.1135 20.5947-20.9309 36.0402-25.8947 18.118-5.8227 44.2408-4.8588 61.8008 3.1359z" fill="#96f0fe"/><path d="m105.506 41.1401c1.499.6581 2.892 1.5399 4.195 2.5443 18.095 13.9489 29.579 31.0102 31.015 54.5595.875 14.3481-11.928 24.5321-26.055 24.5321-5.704 0-11.643 0-18.2157 0-21.2423.001-29.7943 0-48.838.001-19.0437 0-44.36924 3.374-46.868047-13.534-2.044973-13.8373-.337234-28.3348 13.095647-44.2721 9.5269-11.3031 19.2846-19.5232 33.7724-24.1274 16.9511-5.3869 41.3978-6.9496 57.8987.2966z" fill="#96f0fe" fill-opacity=".05"/><path d="m112.62 37.3107c1.48.6652 2.862 1.5366 4.157 2.5255 19.941 15.2216 32.867 33.4359 34.305 59.1416.807 14.4222-12.043 24.6452-26.24 24.5902-6.613-.025-13.481-.052-21.154-.081-22.7886-.087-31.9634-.123-52.3936-.201s-47.58653 3.416-50.333488-14.631c-2.248052-14.7692-.472749-30.2275 13.875788-47.1734 10.1763-12.0185 20.6122-20.7472 36.1369-25.599 18.2282-5.6966 43.9625-6.523 61.6464 1.4281z" fill="#edfdff" fill-opacity=".29"/><path d="m52.1302 47.323c2.7684-5.729 10.6878-7.9072 14.2012-.7495 4.3917 8.947-18.3232 11.8123-14.2012.7495z" fill="#fff" fill-opacity=".3"/><path d="m20.7991 75.1082c2.13-15.6775 17.6732-28.325 29.9712-15.5273 15.3725 15.9972-31.4585 44.6091-29.9712 15.5273z" fill="#fff" fill-opacity=".3"/><path d="m64.0639 36.8341 1.2174-4.7957c-6.9506-6.9264-5.5047-15.5931-3.9129-19.0606 10.2223-18.74241 32.0429-12.672749 40.3856-6.05347 7.014 6.88337 12.916 11.62507 14.903 12.76767 1.176-3.2911 7.208-7.0934 10.076-8.5832 1.508-.8959 4.718-2.10392 5.491.2313.774 2.3353-1.458 3.503-2.671 3.7949-2.711.5897-6.888 4.9942-8.638 7.1227 2.096 2.2662 13.586 7.2569 21.232 10.3497 2.081.8417 4.107 1.9154 5.645 3.5769 7.376 7.9689 1.399 14.5518-2.927 17.0144l-2.638 1.1416c-.092 4.3987-3.142 5.6492-4.655 5.7246-22.743-5.7058-68.8206-17.4794-71.1853-18.9272-2.3647-1.4479-2.5338-3.4723-2.3228-4.3036z" fill="#3b4659"/><path d="m144.449 53.1921-79.1836-21.054-1.2661 4.9875c-.5064 1.995 1.5033 3.6078 2.5715 4.1649l70.9852 18.8741c3.948-.7523 4.781-4.2578 4.704-5.9164z" fill="#333"/><g fill="#54758b"><ellipse cx="56.0607" cy="89.235" rx="5.26655" ry="5.40636"/><ellipse cx="110.833" cy="89.9557" rx="5.26655" ry="5.40636"/><path d="m84.1167 93.9204c-9.3951 0-1.3224 5.3384-.9918 5.0334h1.9836c.6612 0 8.3566-5.0334-.9918-5.0334z"/></g><path d="m71.5093 104.733c.2809 1.442 2.2236 2.283 3.1599 2.523 2.6918.841 8.3563.288 9.4798-8.65.1171 3.724 2.2471 10.669 9.8309 8.65 1.1703-.48 3.511-1.658 3.511-2.523" stroke="#54758b" stroke-width="3"/></svg>