<svg fill="none" height="203" viewBox="0 0 1070 203" width="1070" xmlns="http://www.w3.org/2000/svg"><path d="m846.687 172.424c98.808 50.335 184.423 29.326 223.313 0v-172.424h-1070v172.424c101.142 52.207 170.739 24.139 208.292 0 52.574-33.794 115.161-50.104 206.289 0 74.605 41.02 168.737 16.356 208.292 0 47.066-19.461 134.188-45.656 223.814 0z" fill="#c8c8c8" fill-opacity=".5"/><g fill="#fff" fill-opacity=".55"><path d="m55.4554 168.413c44.064 21.717 115.1776 9.423 139.7436-10.036 7.535-9.106-.702-15.691-10.163-8.827-70.88 34.241-120.9043 4.558-134.7914 4.733-10.1379.127-3.2902 9.94 5.2108 14.13z"/><path d="m894.053 163.645c41.498 25.591 113.597 19.779 140.147 2.634 8.48-8.381 1-15.678-9.16-9.702-74.238 27.672-120.806-6.382-134.643-7.463-10.102-.789-4.35 9.594 3.656 14.531z"/></g></svg>