<svg fill="none" height="24" viewBox="0 0 24 24" width="24" xmlns="http://www.w3.org/2000/svg"><path clip-rule="evenodd" d="m10.2 0c-5.6333 0-10.2 4.5667-10.2 10.2s4.5667 10.2 10.2 10.2c2.3842 0 4.5774-.818 6.3142-2.1888l5.4373 5.4373c.4686.4687 1.2284.4687 1.697 0 .4687-.4686.4687-1.2284 0-1.697l-5.4373-5.4373c1.3708-1.7368 2.1888-3.93 2.1888-6.3142 0-5.6333-4.5667-10.2-10.2-10.2zm-7.8 10.2c0-4.30782 3.49218-7.8 7.8-7.8 4.3078 0 7.8 3.49218 7.8 7.8 0 4.3078-3.4922 7.8-7.8 7.8-4.30782 0-7.8-3.4922-7.8-7.8z" fill="#656565" fill-rule="evenodd"/></svg>