<svg fill="none" height="282" viewBox="0 0 201 282" width="201" xmlns="http://www.w3.org/2000/svg"><path d="m7.653 82.7312-2.87784-6.5964c-2.01738-4.624 1.371-9.7991 6.41594-9.7991h179.1229c4.911 0 8.295 4.9245 6.535 9.5089l-2.999 7.8129c-1.274 3.3174-1.927 6.8406-1.927 10.3941v162.8164c2.495 21.957-23.392 22.126-35.088 22.02h-121.6371c-34.06499 1.916-30.4094-19.894-29.62967-27.128l4.49237-156.6008c.1225-4.2694-.69964-8.5132-2.4076-12.428z" fill="#f1f1f1" stroke="#d9d9d9" stroke-opacity=".4" stroke-width="4"/><g stroke="#fff" stroke-opacity=".7" stroke-width="5"><path d="m40.0834 121.194h-9.6667c-3.8659 0-7 3.134-7 7v101.353c0 3.866 3.1341 7 7 7h9.6667"/><path d="m24.1111 200.1h16.6666"/><path d="m24.1111 159.896h15.625"/></g><path d="m196.655 69.4475c0-2.6713-3.366-7.8556-18.231-9.5232-17.805-1.9974-48-2.9179-77.234-2.9179-28.1642 0-62.0365.6895-77.6308 3.792-10.3486 2.0589-19.49296 4.2197-19.49279 7.9847 0 5.871 43.48359 10.6305 97.12359 10.6305s95.465-4.0951 95.465-9.9661z" fill="#c8c8c8"/><path d="m178.972 97.2835c0 2.4147-2.182 4.3725-4.285 4.3725-2.104 0-4.048-1.9578-4.048-4.3725 0-2.4148 2.658-4.6456 4.762-4.6456s3.571 2.2308 3.571 4.6456z" fill="#fff" fill-opacity=".8"/><rect fill="#fff" fill-opacity=".7" height="42.0832" rx="3.47222" width="6.94444" x="171.333" y="108.419"/><path d="m188.424 269.158c0 2.143-3.117 6.304-16.881 7.642-16.486 1.603-44.444.711-71.513.711-26.0776 0-56.0604 0-72.7413 0-9.8216 0-17.1878-4.799-17.1876-7.82 0-4.712 40.2626-8.531 89.9289-8.531 49.667 0 88.394 3.286 88.394 7.998z" fill="#c8c8c8" fill-opacity=".5"/><path d="m143.166 170.584c1.557.747 3.018 1.744 4.377 2.862 22.773 18.725 36.615 39.92 36.5 72.389-.051 14.29-11.775 24.131-25.184 24.168-8.364.024-16.966.048-26.777.076-24.821.07-34.8131.098-57.0644.161-22.2513.064-51.8525 4.406-54.7231-16.931-2.3492-17.461-.3117-35.768 15.43-55.932 10.3271-13.228 25.7421-27.97 39.0766-27.337 2.1411.102 4.22.94 6.2564 1.747 35.1665 13.951 37.8735-12.832 62.1085-1.203z" fill="#96f0fe"/><path d="m128.447 173.763c1.537.734 2.969 1.708 4.307 2.815 21.038 17.407 33.965 38.917 34.317 69.252.167 14.349-11.628 24.234-25.084 24.234-7.382 0-15.011 0-23.635 0-23.2994 0-32.6798 0-53.5681 0-20.8882.001-48.6668 3.983-51.4076-15.977-2.243-16.335-.3699-33.45 14.3641-52.265 10.4497-13.343 21.1524-23.048 37.0436-28.483 18.6462-6.378 45.561-8.215 63.663.424z" fill="#96f0fe" fill-opacity=".05"/><path d="m138.502 170.413c24.241 19.234 39.631 42.416 39.922 76.307.124 14.419-11.725 24.351-25.25 24.294-8.396-.034-17.032-.07-26.877-.111-24.996-.103-35.0598-.145-57.4688-.237-22.4091-.092-52.1957 4.033-55.2088-17.272-2.4658-17.436-.5185-35.685 15.2198-55.691 11.162-14.188 22.6087-24.493 39.637-30.22 47.9418 19.158 50.2528-11.478 70.0258 2.93z" fill="#edfdff" fill-opacity=".29"/><path d="m61.8737 185.925c3.0365-6.763 11.723-9.334 15.5767-.884 4.817 10.562-20.0979 13.944-15.5767.884z" fill="#fff" fill-opacity=".3"/><path d="m30.9828 217.339c2.2388-16.461 17.0949-29.969 28.517-16.763 14.2777 16.506-30.3444 47.257-28.517 16.763z" fill="#fff" fill-opacity=".3"/><path d="m55.9558 240.104h27.8435" stroke="#2d3f58" stroke-opacity=".6" stroke-width="2"/><path d="m125.276 240.104h27.843" stroke="#2d3f58" stroke-opacity=".6" stroke-width="2"/><path d="m95.2371 256.848h19.3709" stroke="#2d3f58" stroke-opacity=".6" stroke-width="2"/><path d="m118.55 170.641c-11.646 7.638-26.3456 5.147-34.0938 2.33l-.0283-.01c-1.5467-.563-3.3585-1.222-4.7034-.279-1.9763 1.385.5157 4.545 2.4037 6.268 12.0287 8.982 29.3378 4.156 38.6938-.377 1.838-.89 3.271-2.493 3.785-4.469 1.811-6.955-3.057-5.38-6.057-3.463z" fill="#7cedff"/><circle cx="101" cy="167.006" fill="#687587" r="13"/><path d="m71 47.0063-19.5-21c21.6876-24.2798 36.9852-25.9262057 52.043-26.00305085 3.548-.01810815 7.116.31731385 10.519 1.32296085 28.407 8.3951 35.938 30.87879 35.938 42.99589-.527 16.497-13.179 30.6141-18.978 37.4647-15.815 17.5828-20.033 24.6412-20.033 28.7772v28.442h-23.7227v-28.442c0-4.136-.4526-12.8754 2.1087-15.746 3.6902-4.1358 13.707-13.0312 25.832-30.1981 10.793-13.6136 2.793-29.3786-6.327-33.6136-19.38-9-30.4996 6.4077-37.88 16z" fill="#687587"/></svg>