<svg fill="none" height="219" viewBox="0 0 199 219" width="199" xmlns="http://www.w3.org/2000/svg"><path d="m7.02168 24.9304-2.65124-5.9699c-2.05565-4.6288 1.33277-9.84112 6.39746-9.84112h177.9811c4.928 0 8.314 4.95762 6.52 9.54802l-2.814 7.1986c-1.314 3.3641-1.989 6.9441-1.989 10.5559v158.9381c2.483 21.463-23.275 21.628-34.912 21.524h-121.0296c-33.894653 1.873-30.25734-19.445-29.48151-26.517l4.46251-152.8197c.12669-4.3385-.72208-8.6501-2.48372-12.6169z" fill="#f1f1f1" stroke="#d9d9d9" stroke-opacity=".4" stroke-width="4"/><g stroke="#fff" stroke-opacity=".7" stroke-width="5"><path d="m39.3856 62.7422h-9.5834c-3.866 0-7 3.134-7 7v98.7548c0 3.866 3.1341 7 7 7h9.5834"/><path d="m23.4932 139.871h16.5833"/><path d="m23.4932 100.572h15.5468"/></g><path d="m196.448 12.1607c0-2.61112-3.35-7.67865-18.14-9.30864-17.717-1.952436-47.761-2.85217939-76.848-2.85217939-28.0236 0-61.7266.67392239-77.2429 3.70656939-10.2968 2.01252-19.39548 4.12466-19.39532 7.80485 0 5.7388 43.26622 10.391 96.63822 10.391 53.371 0 94.988-4.0028 94.988-9.7416z" fill="#c8c8c8"/><path d="m177.58 39.3698c0 2.3603-2.171 4.2738-4.264 4.2738-2.094 0-4.028-1.9135-4.028-4.2738 0-2.3604 2.645-4.5409 4.738-4.5409 2.094 0 3.554 2.1805 3.554 4.5409z" fill="#fff" fill-opacity=".8"/><rect fill="#fff" fill-opacity=".7" height="41.1354" rx="3.45486" width="6.90972" x="169.979" y="50.2546"/><path d="m186.985 207.373c0 2.095-3.102 6.162-16.797 7.47-16.404 1.567-44.223.695-71.1556.695-25.9474 0-55.7803 0-72.3777 0-9.7725 0-17.10187-4.691-17.10172-7.644 0-4.605 40.06132-8.338 89.47942-8.338 49.4186 0 87.9526 3.212 87.9526 7.817z" fill="#c8c8c8" fill-opacity=".5"/><path d="m138.391 120.636c1.515.711 2.934 1.632 4.262 2.678 20.577 16.201 33.338 34.477 34.033 61.947.362 14.317-11.978 24.333-25.796 24.37-7.119.019-14.491.039-22.787.061-23.221.063-32.5697.088-53.3872.144-20.8175.057-48.5111 3.941-51.1968-15.146-2.1978-15.62-.2916-31.997 14.4358-50.035 10.445-12.793 21.1338-22.105 36.9836-27.347 18.6041-6.153 45.4336-5.13 63.4526 3.328z" fill="#96f0fe"/><path d="m124.59 123.48c1.515.686 2.923 1.603 4.24 2.647 18.955 15.027 30.847 33.475 31.933 59.13.608 14.362-11.801 24.422-25.667 24.422-6.204 0-12.652 0-19.838 0-21.7983 0-30.5742 0-50.1164 0-19.5422.001-45.5308 3.564-48.095-14.293-2.0985-14.613-.346-29.923 13.4385-46.754 9.7763-11.937 19.7894-20.619 34.6565-25.481 17.4065-5.693 42.5154-7.341 59.4484.329z" fill="#96f0fe" fill-opacity=".05"/><path d="m131.89 119.436c1.495.693 2.893 1.6 4.202 2.628 20.85 16.371 34.235 36.018 35.302 63.964.551 14.435-11.909 24.548-25.844 24.492-7.142-.028-14.539-.057-22.859-.09-23.3858-.092-32.8008-.13-53.7658-.212-20.9651-.083-48.8323 3.607-51.6511-15.452-2.3069-15.597-.4852-31.923 14.239-49.819 10.4427-12.693 21.1518-21.911 37.0829-27.035 18.7169-6.02 45.146-6.89 63.294 1.524z" fill="#edfdff" fill-opacity=".29"/><path d="m69.7829 129.994c2.8408-6.05 10.9675-8.351 14.5729-.792 4.5066 9.449-18.8028 12.475-14.5729.792z" fill="#fff" fill-opacity=".3"/><path d="m37.6316 159.337c2.1857-16.557 18.1358-29.913 30.7558-16.398 15.7749 16.894-32.2821 47.111-30.7558 16.398z" fill="#fff" fill-opacity=".3"/><ellipse cx="71.2942" cy="175.398" fill="#2d3f58" fill-opacity=".6" rx="4.32353" ry="4.56766"/><ellipse cx="127.5" cy="175.398" fill="#2d3f58" fill-opacity=".6" rx="4.32353" ry="4.56766"/><path d="m0-1h21.1274" stroke="#2d3f58" stroke-opacity=".6" stroke-width="2" transform="matrix(.944562 -.328334 .297353 .954768 52.5588 166.348)"/><path d="m0-1h21.1678" stroke="#2d3f58" stroke-opacity=".6" stroke-width="2" transform="matrix(-.925165 -.379565 .345013 -.938598 147.804 165.924)"/><path d="m90.75 197.998h16.682" stroke="#2d3f58" stroke-opacity=".6" stroke-width="2"/></svg>