<svg fill="none" height="1537" viewBox="0 0 1068 1537" width="1068" xmlns="http://www.w3.org/2000/svg"><path d="m477 1027.67 38.045-1027.67h51.015l25.94 1017.08c-20.06-2.61-45.539.95-58.365 10.59l-.987.19c-23.602 4.59-37.312 7.26-55.648-.19z" fill="#abf3fe"/><path d="m356 919.239c0 6.595-5.373 11.942-12 11.942s-12-5.347-12-11.942c0-6.596 5.373-11.943 12-11.943s12 5.347 12 11.943z" fill="#96f0fe" fill-opacity=".8"/><path d="m794 871.466c0 4.947-4.029 8.958-9 8.958s-9-4.011-9-8.958 4.029-8.957 9-8.957 9 4.01 9 8.957z" fill="#96f0fe" fill-opacity=".8"/><path d="m238 975.571c-73 34.339-94.5 43.789-157.8382 59.679l-36.6618 8-44.5 7.46v486.29c39.5 0 409-.5 599.5 0h471v-508.67l-129.5-18.92c-32.218-5.5-82.5-17.83-111-40.041-12.762-9.945-39.5-35.468-80.921-40.499-42.26-5.134-77.157 18.969-100.541 36.388-4.868 3.627-12.049 2.061-12.865-3.955-4.572-33.696 54.684-61.022 88.047-71.221 25.336-8.497 45.682-15.462 39.505-27.871-1.038-2.086-2.838-3.741-5.058-4.45-17.363-5.54-73.512 6.418-111.167 35.104-6.27 4.776-43.469 46.729-59.5 71.758l-118 21.795-40.5-48.767c-13.5-14.431-37-22.891-40.5-5.474-3.338 16.613 44.728 42.734 60.888 52.883 1.241.779 1.841 2.571.604 3.358-2.073 1.32-5.356-.861-11.992-3.89-64.708-34.611-130-37.819-199-8.957z" fill="#abf3fe"/><g fill="#fff"><path d="m732.255 862.452c-25.002.055-49.815 13.846-57.91 22.611-5.06 5.477-1.548 10.075 8.871 1.733 22.038-15.209 41.072-16.927 47.154-18.396 12.034-1.727 8.783-5.963 1.885-5.948z" fill-opacity=".8"/><path d="m133.451 1038.49c-25.98 10.67-73.0072 17.41-93.2735 19.44-23.5799.97-16.609 5.75-10.1761 8.02 14.6535 3.4 87.3926-4.39 108.8266-18.47 17.147-11.27 3.56-10.69-5.377-8.99z" fill-opacity=".8"/><path d="m362.641 977.751c-47.578-13.845-103.432 1.601-124.337 15.703-13.065 8.816-9.279 20.546 15.779 8.636 51.471-20.008 88.743-13.029 101.234-12.754 23.968 3.05 20.45-7.765 7.324-11.585z" fill-opacity=".8"/><path d="m746.936 941.72c-30.662-7.404-72.149 19.799-86.452 35.245-8.939 9.653-2.747 13.559 14.191-.327 34.609-24.401 58.789-22.183 66.976-23.352 15.608.094 13.743-9.524 5.285-11.566z" fill-opacity=".8"/><path d="m400.046 932.216c-7.337 6.796 9.324 16.454 17.571 20.055.846.369 1.612-.527 1.159-1.331-6.499-11.526-13.73-23.355-18.73-18.724z"/><path d="m551 736.165 4.5-235.58h7.11l5.39 235.58c-8.293 13.148-14.789 5.478-17 0z" fill-opacity=".8"/></g></svg>