<svg fill="none" height="258" viewBox="0 0 1068 258" width="1068" xmlns="http://www.w3.org/2000/svg" xmlns:xlink="http://www.w3.org/1999/xlink"><clipPath id="a"><path d="m0 0h1068v258h-1068z"/></clipPath><g clip-path="url(#a)"><path d="m222.896 30.6296c-98.624-50.7559-184.0808-29.57142-222.896 0v227.3704h1068v-227.3704c-100.953-52.6438-170.42-24.34094-207.903 0-52.475 34.0775-114.946 50.5245-205.903 0-74.465-41.3635-168.421-16.4926-207.903 0-46.978 19.624-133.937 46.0389-223.395 0z" fill="#ffdc62"/><path d="m166.741 30.719c-43.578-24.65371-114.9474-12.6262-139.9359 8.1778-7.7339 9.8155.3568 17.1875 9.9669 9.8649 71.618-36.0519 120.98-2.5617 134.868-2.4734 10.139.0645 3.508-10.813-4.899-15.5693z" fill="#fff" fill-opacity=".55"/><path d="m1028.74 30.719c-43.577-24.65371-114.946-12.6262-139.935 8.1778-7.734 9.8155.357 17.1875 9.967 9.8649 71.618-36.0519 120.978-2.5617 134.868-2.4734 10.14.0645 3.51-10.813-4.9-15.5693z" fill="#fff" fill-opacity=".55"/><path d="m397.009 164.28h3.88l-9.92-39.52h-3.92zm46.491-22.32v18.6h4.36v-14.28h7.44v14.12h4.56v-18.44zm5.32-18.88v20.04h4.68v-20.04zm2.8 8.24v4.44h9.64v-4.44zm-5.84 23.36v4.36h11.64v-4.36zm-17.08-27.2h9.72v8.72h-9.72zm-3.56-3.24v15.2h17v-15.2zm3.48 4.96c.6 1.84 1.08 4.24 1.16 5.84l2.08-.68c-.12-1.52-.64-3.92-1.28-5.76zm1.2 23.32c.36 2.24.52 5.16.4 7.04l3.12-.32c.04-1.92-.16-4.8-.56-7zm4.08-.04c.72 2.12 1.4 4.88 1.56 6.72l2.96-.64c-.2-1.8-.92-4.52-1.68-6.6zm4-.08c1.16 2 2.28 4.72 2.68 6.48l3.04-1.16c-.44-1.8-1.6-4.4-2.84-6.36zm-11.92-1.04c-.48 2.4-1.4 5.36-2.56 7.28l3.32 1.36c1.12-1.92 1.92-5 2.4-7.48zm10.48-22.8c-.32 1.68-1.04 4.24-1.6 5.88l1.76.64c.68-1.44 1.48-3.76 2.24-5.68zm-11.28 12.6v3.64h16.84v-3.64zm6.84-15.28v12.08h-.64v10.44h4.2v-10.44h-.64v-12.08zm-7.64 20.92v3.6h18.2v-3.6zm72.28-20.2c2.16 1.96 4.68 4.76 5.72 6.68l3.88-2.72c-1.2-1.88-3.8-4.56-6-6.44zm-26.2 7.8v4.56h36.12v-4.56zm-.76 11.32 1.2 4.84c5.16-1.04 12.12-2.44 18.6-3.8l-.36-4.36c-7 1.28-14.6 2.6-19.44 3.32zm8.36-17.76v26.96c0 .68-.24.88-.96.88-.72.04-3.04.04-5.32-.08.72 1.36 1.52 3.52 1.72 4.88 3.28 0 5.64-.16 7.24-.92 1.64-.76 2.16-2.08 2.16-4.68v-27.04zm8.2-4.68c-4.12 1.4-10.36 2.64-16 3.4.56 1.08 1.16 2.88 1.4 4 5.8-.64 12.64-1.72 17.84-3.32zm3.92.08c.12 17.96 3.24 37.4 11.52 37.4 3.64 0 5.16-1.76 5.92-8.84-1.28-.52-2.92-1.64-3.92-2.76-.24 4.76-.68 6.72-1.52 6.72-3.64 0-7.24-16.4-6.96-32.52zm10.88 16.92c-3.56 6.6-10.08 12.04-16.92 15.16 1.2 1.08 2.52 2.68 3.24 3.88 7.24-3.84 13.76-9.8 17.92-17.24zm36.04-1.76v3.8h12.24v-3.8zm-2.24-13.8v35.84h4.36v-31.64h10.36v-4.2zm12.16 0v7.48c0 .44-.16.56-.8.6-.56 0-2.76 0-4.72-.08.56 1.16 1.16 2.88 1.32 4.12 2.96 0 5.12-.04 6.68-.68s1.96-1.84 1.96-3.88v-7.56zm-4.88 16.28-3.6.92c2.24 7.96 6.16 14.84 12.12 18.4.72-1.2 2.12-2.92 3.16-3.8-5.68-2.84-9.68-8.88-11.68-15.52zm5.8-2.48v.92c-1.04 7.28-4.44 14.16-10 17.96 1.04.8 2.48 2.2 3.16 3.28 6.12-4.44 9.88-12.2 11.32-21.32l-2.88-1.04-.76.2zm-30.8-11.92v3.96h15.72v-3.96zm-1.16 22.64v4.04h17.84v-4.04zm0-15.92v4.04h17.8v-4.04zm.96 8.68v4.04h16.08v-4.04zm6-18.84v11.68h4.44v-11.68zm0 20.52v16.8h4.44v-16.8zm5.32-6.72c-.56 1.92-1.72 4.56-2.68 6.24l3.4.96c1-1.56 2.16-3.92 3.28-6.2zm-9.92 1.08c.68 1.44 1.36 3.36 1.56 4.56l3.68-1.16c-.24-1.2-1-3.04-1.76-4.44zm57.4 16.64v4.36h17.92v-4.36zm-2-27.72v4.24h14.16v-4.24zm1.04-4.16c-2.32 4.44-6.76 9.32-13.36 12.8 1.08.84 2.68 2.6 3.36 3.8 7.2-4.32 12-9.68 15.4-15.52zm11.6 4.16v.8c-3.68 10.08-14 17.84-25.04 21.04 1 1 2.2 2.96 2.8 4.28 11.92-4 22.6-12.16 27.28-24.6l-3.32-1.76-.8.24zm-17.88 8.8c2.76 2.08 6.32 5.16 7.84 7.24l3.88-3.48c-1.76-2.08-5.4-4.92-8.16-6.88zm22.92 6.72v18.16h5v-18.16zm-13.64 0h-1.16l-3.64 3.56v14.52h4.8v-13.72h16.04v-4.36zm46.64 4.24h4.12l1.04-13.68.2-5.96h-6.6l.2 5.96zm2.08 10.68c2 0 3.52-1.48 3.52-3.56s-1.52-3.52-3.52-3.52c-2.04 0-3.56 1.44-3.56 3.52s1.48 3.56 3.56 3.56zm41.583 6.88h3.92l9.96-39.52h-3.88z" fill="#252525"/></g></svg>